<?xml version="1.0" standalone="no"?>
<!DOCTYPE svg PUBLIC "-//W3C//DTD SVG 20010904//EN"
 "http://www.w3.org/TR/2001/REC-SVG-20010904/DTD/svg10.dtd">
<svg version="1.0" xmlns="http://www.w3.org/2000/svg"
 width="1280.000000pt" height="650.000000pt" viewBox="0 0 1280.000000 650.000000"
 preserveAspectRatio="xMidYMid meet">
<g transform="translate(0.000000,650.000000) scale(0.100000,-0.100000)"
fill="#000000" stroke="none">
<path d="M11552 6487 c-6 -7 -13 -64 -14 -128 l-3 -114 -100 -2 c-55 -2 -110
-5 -123 -8 l-22 -5 2 -183 3 -182 109 -3 c61 -1 116 -8 123 -14 17 -14 18
-179 1 -196 -9 -9 -110 -12 -395 -12 -211 0 -383 -3 -383 -7 0 -4 9 -37 19
-73 11 -36 36 -121 55 -190 20 -69 48 -165 62 -215 14 -49 32 -115 40 -145 8
-30 33 -116 54 -190 22 -74 65 -223 95 -330 31 -107 61 -200 67 -207 6 -7 28
-13 49 -13 l38 0 -6 -62 c-4 -46 -1 -73 11 -102 9 -21 16 -40 16 -42 0 -2 -20
-12 -43 -22 -59 -26 -86 -66 -93 -139 -7 -66 5 -100 50 -142 32 -30 26 -41
-22 -41 -45 0 -109 -29 -139 -61 -53 -58 -58 -142 -13 -213 40 -62 90 -85 187
-86 65 0 73 -2 92 -27 88 -111 88 -545 0 -1083 -60 -364 -151 -701 -216 -796
-25 -38 -25 -39 -20 -197 3 -87 3 -165 1 -172 -3 -8 -26 -24 -51 -36 -43 -21
-103 -94 -103 -125 0 -7 -13 -38 -30 -69 -51 -96 -37 -196 37 -274 24 -24 43
-48 43 -53 0 -4 -29 -8 -64 -8 -104 0 -96 21 -90 -244 3 -127 7 -241 10 -254
l4 -22 983 2 982 3 1 170 c0 94 -2 208 -5 255 l-6 85 -60 3 c-89 4 -91 6 -41
54 64 62 83 148 52 240 -8 24 -18 61 -22 83 -3 22 -16 57 -27 78 -23 41 -98
97 -131 97 -42 0 -45 10 -52 180 -6 164 -7 165 -35 196 -82 86 -161 368 -208
744 -59 466 -47 911 31 1093 29 66 48 77 138 77 80 0 140 20 172 57 30 33 49
103 42 151 -12 78 -100 151 -181 152 -42 0 -41 13 2 61 33 37 35 43 35 109 0
64 -3 72 -32 106 -18 20 -52 45 -75 55 -24 10 -43 20 -43 22 0 3 7 21 15 40 8
20 15 64 15 97 0 57 1 60 24 60 13 0 28 6 34 13 6 6 94 307 197 667 103 360
191 663 196 672 9 17 -13 18 -378 20 l-388 3 0 105 0 105 115 5 115 5 3 174
c2 117 -1 178 -9 187 -8 9 -43 14 -117 16 l-107 3 -5 115 c-3 63 -9 121 -13
128 -12 18 -440 17 -455 -1z"/>
<path d="M9436 5920 c-84 -26 -143 -100 -160 -203 l-12 -72 -392 -3 c-222 -1
-392 -6 -392 -11 0 -28 383 -1347 393 -1353 7 -4 29 -8 50 -8 20 0 37 -3 37
-6 0 -3 -5 -24 -11 -47 -10 -42 -6 -66 25 -139 6 -13 0 -19 -31 -27 -69 -19
-102 -75 -103 -174 0 -44 12 -70 47 -109 29 -30 23 -48 -15 -48 -101 0 -182
-77 -182 -174 0 -119 77 -185 216 -186 78 0 91 -7 117 -71 57 -139 47 -592
-24 -1029 -56 -351 -150 -698 -215 -802 -23 -36 -24 -46 -24 -211 l0 -174 -39
-18 c-53 -24 -71 -45 -121 -145 -73 -148 -65 -260 26 -339 19 -17 34 -35 34
-41 0 -6 -28 -10 -67 -10 -38 0 -74 -4 -82 -9 -12 -8 -13 -48 -7 -252 4 -133
9 -246 12 -251 3 -4 445 -8 984 -8 922 0 978 1 985 17 11 30 -6 487 -19 495
-6 4 -37 8 -68 8 -63 0 -72 11 -35 40 29 23 68 101 74 150 4 25 -2 64 -15 107
-12 37 -24 85 -27 106 -9 58 -74 123 -140 142 l-52 16 -7 61 c-3 33 -6 110 -6
169 0 99 -2 110 -21 121 -29 19 -53 61 -93 168 -47 126 -69 216 -100 401 -87
521 -84 1104 6 1284 36 72 42 75 131 75 103 0 156 23 192 84 68 116 0 252
-133 272 -66 9 -68 12 -33 48 42 44 53 80 45 145 -10 88 -48 141 -99 141 -42
0 -48 13 -29 69 14 44 15 58 4 97 -7 24 -11 46 -9 47 2 2 22 8 43 13 l39 9
192 672 c105 370 190 675 187 678 -3 3 -175 5 -383 5 -289 0 -380 3 -385 12
-5 7 -9 35 -11 61 -9 147 -156 249 -297 207z"/>
<path d="M7000 5284 c-134 -36 -219 -109 -270 -231 -54 -129 -42 -260 35 -385
l37 -59 -49 -52 c-170 -180 -255 -439 -255 -772 0 -225 36 -403 121 -589 17
-38 31 -70 31 -72 0 -2 -18 -15 -41 -29 -54 -35 -72 -79 -66 -164 2 -36 7 -75
11 -87 6 -18 0 -26 -38 -48 -56 -33 -74 -58 -82 -118 -10 -71 3 -115 46 -162
22 -24 37 -46 33 -49 -3 -4 -26 -7 -50 -7 -115 0 -196 -97 -179 -213 14 -92
97 -147 223 -147 l73 0 29 -41 c106 -145 36 -360 -185 -569 l-69 -65 0 -174 0
-174 -35 -19 c-55 -31 -88 -67 -107 -117 -9 -25 -25 -58 -35 -73 -11 -15 -24
-52 -30 -82 -17 -79 8 -156 68 -212 24 -23 44 -44 44 -48 0 -3 -33 -6 -74 -6
-48 0 -78 -4 -82 -12 -9 -13 -5 -472 3 -494 4 -12 171 -14 989 -14 l984 0 -1
242 c0 137 -4 249 -10 260 -8 15 -22 18 -74 18 -74 0 -80 9 -34 48 18 14 40
44 50 67 22 49 25 142 5 190 -8 19 -18 55 -21 80 -12 79 -97 165 -163 165 -11
0 -24 6 -30 12 -5 7 -12 85 -14 172 l-5 160 -44 35 c-67 53 -144 135 -172 183
-64 110 -74 254 -24 359 47 99 53 103 159 109 138 8 206 53 224 146 19 104
-66 213 -168 214 -48 0 -56 15 -25 48 39 42 47 66 47 139 0 97 -31 139 -124
167 -13 5 -16 11 -10 24 4 9 12 42 17 72 15 87 -6 140 -77 197 -13 11 -12 18
8 65 74 169 108 340 108 543 0 173 -21 343 -42 330 -5 -3 -79 -84 -165 -180
-86 -96 -160 -175 -165 -175 -12 0 -130 110 -130 122 0 7 270 321 300 348 3 3
26 29 53 57 l47 53 -31 62 c-40 80 -98 165 -138 202 -39 37 -39 59 0 104 89
101 107 280 42 419 -31 66 -119 161 -178 191 -51 25 -156 52 -203 51 -20 0
-62 -7 -92 -15z"/>
<path d="M2218 3762 c-42 -28 -83 -85 -142 -200 -59 -117 -87 -206 -111 -354
-23 -145 -20 -215 14 -327 16 -53 41 -152 56 -221 15 -69 51 -224 80 -345 45
-184 86 -380 120 -565 41 -228 72 -824 44 -846 -8 -6 -44 -21 -80 -33 -73 -24
-86 -35 -120 -100 -18 -35 -23 -60 -22 -120 0 -93 17 -130 78 -173 24 -17 42
-35 39 -40 -3 -4 -28 -8 -55 -8 -92 0 -89 6 -89 -209 0 -169 2 -190 18 -204
17 -16 89 -17 830 -17 l811 0 20 26 c19 25 21 40 21 193 0 205 -3 211 -90 211
-32 0 -61 4 -64 9 -3 4 12 23 34 40 56 45 80 96 80 171 0 115 -51 186 -159
221 -90 29 -91 31 -80 109 16 106 16 107 55 120 74 25 145 114 173 215 42 159
3 385 -96 549 -21 33 -82 110 -138 170 -155 169 -333 366 -382 423 -44 52 -45
54 -41 110 9 121 95 246 187 274 33 10 63 9 165 -4 68 -10 157 -17 199 -17 93
0 120 18 142 94 19 66 10 93 -46 127 -21 13 -39 32 -39 41 0 17 66 78 86 78 6
0 23 9 38 21 30 24 35 72 12 117 -14 27 -109 122 -121 122 -4 0 -63 9 -133 19
-70 11 -201 29 -292 41 -138 19 -172 26 -205 48 -37 24 -47 26 -141 23 -136
-3 -263 28 -313 76 -20 19 -53 38 -78 44 -26 7 -63 30 -98 60 -48 42 -62 49
-98 49 -23 0 -54 -8 -69 -18z"/>
<path d="M4261 3676 c-8 -9 -10 -125 -9 -407 l3 -394 30 -9 c17 -6 32 -11 34
-13 2 -1 -8 -20 -22 -42 -35 -53 -51 -120 -44 -190 9 -100 58 -167 150 -206
42 -17 44 -23 21 -67 -11 -22 -15 -49 -12 -90 4 -49 9 -63 36 -91 l32 -33 -20
-130 c-42 -267 -82 -473 -116 -608 -38 -151 -110 -358 -155 -448 -16 -32 -29
-64 -29 -73 0 -9 -22 -37 -50 -64 -53 -52 -59 -66 -35 -97 8 -10 15 -35 15
-54 1 -47 22 -102 54 -144 14 -19 26 -37 26 -40 0 -3 -28 -6 -62 -8 l-63 -3 0
-230 0 -230 794 -3 c578 -1 797 1 807 9 11 9 14 58 14 229 0 239 2 230 -61
230 -16 0 -29 4 -29 10 0 5 14 33 32 62 59 99 45 229 -33 304 -35 33 -36 40
-8 47 19 5 16 13 -42 98 -76 113 -103 172 -167 365 -87 261 -137 490 -149 680
-5 95 -5 102 15 116 49 34 69 142 37 198 -22 38 -19 44 35 63 99 35 150 105
158 217 5 78 -9 138 -43 178 -32 39 -32 52 3 52 15 0 38 7 50 16 l22 15 0 389
c0 375 -1 390 -19 400 -13 6 -220 10 -604 10 -482 0 -587 -2 -596 -14z"/>
<path d="M830 2823 c-51 -8 -147 -47 -198 -80 -236 -157 -277 -505 -83 -725
23 -25 41 -51 41 -57 0 -5 -17 -15 -39 -21 -70 -19 -130 -78 -161 -159 -28
-72 -39 -241 -18 -258 8 -7 54 -13 109 -15 l94 -3 -3 -65 c-7 -131 -48 -264
-122 -390 -47 -81 -185 -239 -214 -245 -11 -2 -39 -6 -61 -9 -59 -8 -115 -53
-147 -116 -28 -56 -36 -104 -18 -115 5 -3 10 -14 10 -24 0 -32 57 -98 104
-121 58 -27 64 -38 29 -46 -15 -4 -31 -12 -35 -18 -4 -6 -8 -81 -8 -167 0
-138 2 -158 18 -172 17 -16 83 -17 749 -17 694 0 731 1 746 18 14 16 17 43 17
173 0 85 -4 159 -8 165 -4 6 -15 13 -24 17 -22 8 -23 25 -1 68 21 41 29 170
14 224 -8 31 -29 57 -90 113 -229 209 -335 428 -315 653 l7 79 111 0 c74 0
116 4 124 12 14 14 15 101 2 182 -20 125 -86 210 -184 238 -23 6 -45 15 -50
19 -5 5 10 29 36 57 79 85 128 210 128 327 -1 294 -271 524 -560 478z m58 -35
c-5 -20 -217 -222 -225 -214 -7 7 206 226 220 226 5 0 7 -6 5 -12z"/>
</g>
</svg>
